# xmcd
#
# Track frame offsets: 
#        150
#        26942
#        37229
#        53524
#        73044
#        93287
#        109651
#        128565
#        141459
#        162717
#        183603
#        197439
#        222900
#        243593
#        255455
#        280723
#
# Disc length: 3939 seconds
#
# Revision: 0
# Processed by: cddbd v1.5.2PL0 Copyright (c) Steve Scherf et al.
# Submitted via: ExactAudioCopy v0.95b3
#
DISCID=f10f6110
DTITLE=Robert Shumy - Live At Fritz
DYEAR=2007
DGENRE=Blues Rock
TTITLE0=Suzie Q [Live]
TTITLE1=Have A Drink On Saturday Night [Live]
TTITLE2=Flat Foot Floogie [Live]
TTITLE3=Fräulein [Live]
TTITLE4=Big Boss Man [Live]
TTITLE5=Turn Around [Live]
TTITLE6=Honest I Do [Live]
TTITLE7=Matchbox [Live]
TTITLE8=I've Got A Woman [Live]
TTITLE9=Whiskey Drinkin' Woman [Live]
TTITLE10=Killin' Jive [Live]
TTITLE11=Honey Take A Whiff On Me [Live]
TTITLE12=Long Black Veil [Live]
TTITLE13=Love Letters In The Sand [Live]
TTITLE14=Nobody's Darlin' But Mine [Live] 
TTITLE15=Since The Time [Live]
EXTD=
EXTT0=
EXTT1=
EXTT2=
EXTT3=
EXTT4=
EXTT5=
EXTT6=
EXTT7=
EXTT8=
EXTT9=
EXTT10=
EXTT11=
EXTT12=
EXTT13=
EXTT14=
EXTT15=
PLAYORDER=
